<svg width="202" height="52" viewBox="0 0 202 52" fill="none" xmlns="http://www.w3.org/2000/svg">
<path d="M56.1926 2.11377H200.271" stroke="white" stroke-width="3" stroke-linecap="round"/>
<path d="M71.081 33.922C70.8784 33.618 70.777 33.3267 70.777 33.048C70.8024 32.744 70.967 32.5033 71.271 32.326C71.4737 32.1487 71.7017 32.0727 71.955 32.098C72.2337 32.1233 72.487 32.25 72.715 32.478C73.399 33.3647 74.2224 34.0867 75.185 34.644C76.173 35.176 77.3384 35.442 78.681 35.442C79.3904 35.442 80.087 35.328 80.771 35.1C81.4804 34.8467 82.063 34.4793 82.519 33.998C82.975 33.4913 83.203 32.858 83.203 32.098C83.203 31.3127 82.975 30.6793 82.519 30.198C82.063 29.7167 81.4677 29.3367 80.733 29.058C80.0237 28.7793 79.2637 28.5387 78.453 28.336C77.5917 28.108 76.7557 27.8547 75.945 27.576C75.1344 27.272 74.4124 26.9047 73.779 26.474C73.171 26.018 72.677 25.4733 72.297 24.84C71.917 24.2067 71.727 23.434 71.727 22.522C71.727 21.458 72.0184 20.5207 72.601 19.71C73.1837 18.8993 73.969 18.266 74.957 17.81C75.9704 17.354 77.1104 17.126 78.377 17.126C79.0104 17.126 79.6944 17.2147 80.429 17.392C81.1637 17.544 81.8857 17.81 82.595 18.19C83.3044 18.57 83.9377 19.0893 84.495 19.748C84.723 19.976 84.837 20.242 84.837 20.546C84.837 20.8247 84.7104 21.078 84.457 21.306C84.2544 21.458 84.0137 21.534 83.735 21.534C83.4817 21.534 83.2664 21.4327 83.089 21.23C82.481 20.546 81.759 20.0267 80.923 19.672C80.087 19.3173 79.1877 19.14 78.225 19.14C77.4904 19.14 76.7937 19.2667 76.135 19.52C75.5017 19.748 74.9697 20.1027 74.539 20.584C74.1084 21.0653 73.893 21.6987 73.893 22.484C73.9437 23.2187 74.197 23.814 74.653 24.27C75.1344 24.726 75.755 25.106 76.515 25.41C77.3004 25.714 78.1744 25.9927 79.137 26.246C79.9477 26.4487 80.7204 26.6893 81.455 26.968C82.215 27.2467 82.8737 27.6013 83.431 28.032C84.0137 28.4373 84.4697 28.9567 84.799 29.59C85.1537 30.2233 85.331 31.0213 85.331 31.984C85.331 33.0987 85.0144 34.0613 84.381 34.872C83.773 35.6827 82.9497 36.3033 81.911 36.734C80.8724 37.1647 79.7197 37.38 78.453 37.38C77.085 37.38 75.755 37.114 74.463 36.582C73.1964 36.05 72.069 35.1633 71.081 33.922ZM98.7735 37.38C96.8229 37.38 95.1002 36.962 93.6055 36.126C92.1109 35.29 90.9455 34.1247 90.1095 32.63C89.2735 31.1353 88.8555 29.3873 88.8555 27.386C88.8555 25.2327 89.2735 23.396 90.1095 21.876C90.9709 20.356 92.0729 19.1907 93.4155 18.38C94.7835 17.544 96.2275 17.126 97.7475 17.126C98.8622 17.126 99.9389 17.3287 100.978 17.734C102.042 18.114 102.979 18.6967 103.79 19.482C104.626 20.242 105.284 21.1793 105.766 22.294C106.272 23.4087 106.551 24.7007 106.602 26.17C106.576 26.474 106.45 26.74 106.222 26.968C105.994 27.1707 105.728 27.272 105.424 27.272H90.1855L89.7295 25.22H104.702L104.208 25.676V24.916C104.106 23.7253 103.726 22.712 103.068 21.876C102.409 21.04 101.611 20.4067 100.674 19.976C99.7362 19.5453 98.7609 19.33 97.7475 19.33C96.9875 19.33 96.2022 19.482 95.3915 19.786C94.6062 20.09 93.8842 20.5713 93.2255 21.23C92.5922 21.8633 92.0729 22.6867 91.6675 23.7C91.2622 24.688 91.0595 25.866 91.0595 27.234C91.0595 28.7287 91.3635 30.084 91.9715 31.3C92.5795 32.516 93.4535 33.4787 94.5935 34.188C95.7589 34.8973 97.1395 35.252 98.7355 35.252C99.6222 35.252 100.42 35.1253 101.13 34.872C101.839 34.6187 102.46 34.2893 102.992 33.884C103.524 33.4533 103.967 33.01 104.322 32.554C104.6 32.326 104.879 32.212 105.158 32.212C105.411 32.212 105.626 32.3133 105.804 32.516C106.006 32.7187 106.108 32.9467 106.108 33.2C106.108 33.504 105.981 33.77 105.728 33.998C104.968 34.91 103.98 35.708 102.764 36.392C101.548 37.0507 100.218 37.38 98.7735 37.38ZM127.552 17.582C127.882 17.582 128.148 17.696 128.35 17.924C128.578 18.152 128.692 18.4307 128.692 18.76V35.86C128.692 36.164 128.578 36.43 128.35 36.658C128.122 36.886 127.856 37 127.552 37C127.223 37 126.944 36.886 126.716 36.658C126.514 36.43 126.412 36.164 126.412 35.86V31.338L127.058 31.034C127.058 31.7433 126.856 32.4653 126.45 33.2C126.07 33.9347 125.538 34.6187 124.854 35.252C124.17 35.8853 123.36 36.4047 122.422 36.81C121.51 37.19 120.522 37.38 119.458 37.38C117.736 37.38 116.19 36.9367 114.822 36.05C113.48 35.1633 112.416 33.9473 111.63 32.402C110.87 30.8567 110.49 29.1213 110.49 27.196C110.49 25.22 110.883 23.4847 111.668 21.99C112.454 20.47 113.518 19.2793 114.86 18.418C116.203 17.5567 117.723 17.126 119.42 17.126C120.51 17.126 121.523 17.316 122.46 17.696C123.423 18.076 124.259 18.5953 124.968 19.254C125.678 19.9127 126.222 20.6727 126.602 21.534C127.008 22.37 127.21 23.244 127.21 24.156L126.412 23.586V18.76C126.412 18.4307 126.514 18.152 126.716 17.924C126.944 17.696 127.223 17.582 127.552 17.582ZM119.648 35.252C120.991 35.252 122.182 34.91 123.22 34.226C124.259 33.5167 125.07 32.554 125.652 31.338C126.26 30.0967 126.564 28.716 126.564 27.196C126.564 25.7013 126.26 24.3587 125.652 23.168C125.07 21.9773 124.259 21.0273 123.22 20.318C122.182 19.6087 120.991 19.254 119.648 19.254C118.331 19.254 117.14 19.596 116.076 20.28C115.038 20.964 114.214 21.9013 113.606 23.092C113.024 24.2827 112.732 25.6507 112.732 27.196C112.732 28.716 113.024 30.0967 113.606 31.338C114.214 32.554 115.038 33.5167 116.076 34.226C117.115 34.91 118.306 35.252 119.648 35.252ZM135.815 37C135.461 37 135.182 36.886 134.979 36.658C134.777 36.43 134.675 36.164 134.675 35.86V18.836C134.675 18.532 134.777 18.266 134.979 18.038C135.207 17.81 135.486 17.696 135.815 17.696C136.145 17.696 136.411 17.81 136.613 18.038C136.841 18.266 136.955 18.532 136.955 18.836V24.536L136.385 24.65C136.461 23.7633 136.677 22.8893 137.031 22.028C137.411 21.1413 137.918 20.3307 138.551 19.596C139.185 18.8613 139.932 18.266 140.793 17.81C141.68 17.354 142.668 17.126 143.757 17.126C144.213 17.126 144.657 17.2273 145.087 17.43C145.518 17.6073 145.733 17.9113 145.733 18.342C145.733 18.722 145.632 19.0133 145.429 19.216C145.227 19.4187 144.986 19.52 144.707 19.52C144.479 19.52 144.226 19.4567 143.947 19.33C143.694 19.2033 143.352 19.14 142.921 19.14C142.212 19.14 141.503 19.3553 140.793 19.786C140.084 20.1913 139.438 20.7487 138.855 21.458C138.273 22.1673 137.804 22.9653 137.449 23.852C137.12 24.7133 136.955 25.5873 136.955 26.474V35.86C136.955 36.164 136.841 36.43 136.613 36.658C136.385 36.886 136.119 37 135.815 37ZM156.993 17.126C158.209 17.126 159.323 17.2653 160.337 17.544C161.35 17.7973 162.161 18.152 162.769 18.608C163.402 19.064 163.719 19.558 163.719 20.09C163.719 20.3433 163.63 20.5967 163.453 20.85C163.275 21.078 163.035 21.192 162.731 21.192C162.427 21.192 162.173 21.116 161.971 20.964C161.793 20.812 161.603 20.6347 161.401 20.432C161.223 20.2293 160.957 20.0393 160.603 19.862C160.273 19.71 159.805 19.5707 159.197 19.444C158.589 19.3173 157.892 19.254 157.107 19.254C155.688 19.254 154.409 19.6087 153.269 20.318C152.129 21.0273 151.229 21.99 150.571 23.206C149.912 24.3967 149.583 25.7393 149.583 27.234C149.583 28.754 149.899 30.122 150.533 31.338C151.166 32.554 152.04 33.5167 153.155 34.226C154.269 34.91 155.574 35.252 157.069 35.252C158.082 35.252 158.867 35.1633 159.425 34.986C159.982 34.8087 160.463 34.606 160.869 34.378C161.35 34.0993 161.692 33.8333 161.895 33.58C162.123 33.3013 162.414 33.162 162.769 33.162C163.098 33.162 163.339 33.2633 163.491 33.466C163.668 33.6433 163.757 33.884 163.757 34.188C163.757 34.5933 163.453 35.0493 162.845 35.556C162.262 36.0373 161.451 36.468 160.413 36.848C159.374 37.2027 158.183 37.38 156.841 37.38C154.941 37.38 153.269 36.9367 151.825 36.05C150.406 35.1633 149.291 33.96 148.481 32.44C147.695 30.8947 147.303 29.1593 147.303 27.234C147.303 25.3847 147.708 23.7 148.519 22.18C149.329 20.66 150.457 19.444 151.901 18.532C153.37 17.5947 155.067 17.126 156.993 17.126ZM176.965 17.43C178.561 17.43 179.853 17.772 180.841 18.456C181.829 19.14 182.551 20.0647 183.007 21.23C183.488 22.3953 183.729 23.6873 183.729 25.106V35.86C183.729 36.164 183.615 36.43 183.387 36.658C183.159 36.886 182.893 37 182.589 37C182.234 37 181.955 36.886 181.753 36.658C181.55 36.43 181.449 36.164 181.449 35.86V25.106C181.449 24.0673 181.284 23.13 180.955 22.294C180.651 21.458 180.144 20.7993 179.435 20.318C178.725 19.8113 177.775 19.558 176.585 19.558C175.521 19.558 174.507 19.8113 173.545 20.318C172.607 20.7993 171.847 21.458 171.265 22.294C170.682 23.13 170.391 24.0673 170.391 25.106V35.86C170.391 36.164 170.277 36.43 170.049 36.658C169.821 36.886 169.555 37 169.251 37C168.896 37 168.617 36.886 168.415 36.658C168.212 36.43 168.111 36.164 168.111 35.86V10.02C168.111 9.716 168.212 9.45 168.415 9.222C168.643 8.994 168.921 8.88 169.251 8.88C169.58 8.88 169.846 8.994 170.049 9.222C170.277 9.45 170.391 9.716 170.391 10.02V22.332L169.517 23.662C169.567 22.8767 169.808 22.1167 170.239 21.382C170.695 20.622 171.277 19.9507 171.987 19.368C172.696 18.76 173.481 18.2913 174.343 17.962C175.204 17.6073 176.078 17.43 176.965 17.43Z" fill="white"/>
<path d="M56.1926 50H200.271" stroke="white" stroke-width="3" stroke-linecap="round"/>
<path d="M0.949951 9.58241C0.949951 7.35931 1.83307 5.22726 3.40505 3.65529C4.97702 2.08332 7.10906 1.2002 9.33217 1.2002H17.654C19.2098 1.2002 20.7052 1.81713 21.8049 2.92023L26.7906 7.90597H46.2139C48.437 7.90597 50.5691 8.78909 52.141 10.3611C53.713 11.933 54.5961 14.0651 54.5961 16.2882V23.5673C54.5961 26 51.2423 26 51.2432 23.5673V16.2882C51.2432 14.9543 50.7134 13.6751 49.7702 12.7319C48.827 11.7887 47.5478 11.2589 46.2139 11.2589H26.7906L21.5601 16.4894C21.0928 16.9573 20.5377 17.3285 19.9267 17.5816C19.3157 17.8348 18.6607 17.9649 17.9994 17.9646H4.30284V39.7584C4.30284 41.0923 4.83271 42.3715 5.77589 43.3147C6.71908 44.2579 7.99831 44.7877 9.33217 44.7877H30.0228C32.5 44.7877 32.5 48.0501 30.0228 48.0501L9.33217 48.1406C7.10906 48.1406 4.97702 47.2575 3.40505 45.6855C1.83307 44.1135 0.949951 41.9815 0.949951 39.7584V9.58241ZM9.33217 4.55308C7.99831 4.55308 6.71908 5.08296 5.77589 6.02614C4.83271 6.96932 4.30284 8.24855 4.30284 9.58241V14.6117H18.0027C18.4465 14.6116 18.8721 14.4356 19.1863 14.1222L23.7261 9.58241L19.4344 5.29072C18.9633 4.81899 18.3241 4.55367 17.6574 4.55308H9.33217ZM39.5081 44.7877C42.1435 44.7877 44.5777 43.916 46.5358 42.4508L55.0857 51.0006C55.2413 51.1565 55.4261 51.2802 55.6296 51.3646C55.833 51.4491 56.0511 51.4926 56.2714 51.4928C56.4917 51.4929 56.7098 51.4497 56.9134 51.3655C57.117 51.2814 57.302 51.158 57.4578 51.0023C57.6137 50.8467 57.7374 50.6618 57.8218 50.4584C57.9063 50.2549 57.9498 50.0368 57.95 49.8166C57.9501 49.5963 57.9069 49.3781 57.8227 49.1746C57.7386 48.971 57.6151 48.786 57.4595 48.6301L48.9096 40.0803C50.4922 37.9639 51.3141 35.3752 51.2423 32.7335C51.1704 30.0918 50.209 27.5516 48.5136 25.5244C46.8183 23.4971 44.4883 22.1015 41.901 21.5634C39.3137 21.0253 36.6205 21.3762 34.2574 22.5594C31.8944 23.7426 29.9999 25.6888 28.8807 28.0828C27.7615 30.4768 27.4832 33.1785 28.0907 35.7504C28.6982 38.3223 30.1561 40.6139 32.2282 42.2541C34.3004 43.8942 36.8654 44.787 39.5081 44.7877ZM39.5081 41.4348C37.285 41.4348 35.153 40.5517 33.581 38.9797C32.0091 37.4078 31.1259 35.2757 31.1259 33.0526C31.1259 30.8295 32.0091 28.6975 33.581 27.1255C35.153 25.5535 37.285 24.6704 39.5081 24.6704C41.7312 24.6704 43.8633 25.5535 45.4353 27.1255C47.0072 28.6975 47.8904 30.8295 47.8904 33.0526C47.8904 35.2757 47.0072 37.4078 45.4353 38.9797C43.8633 40.5517 41.7312 41.4348 39.5081 41.4348Z" fill="white"/>
</svg>
